<?xml version="1.0" encoding="utf-8"?>
<!-- Generator: Adobe Illustrator 25.0.0, SVG Export Plug-In . SVG Version: 6.00 Build 0)  -->
<svg version="1.1" id="Camada_1" xmlns="http://www.w3.org/2000/svg" xmlns:xlink="http://www.w3.org/1999/xlink" x="0px" y="0px"
	 viewBox="0 0 445 300" style="enable-background:new 0 0 445 300;" xml:space="preserve">
<style type="text/css">
	.st0{fill:#FFFFFF;}
	.st1{display:none;fill:#FFFFFF;stroke:#000000;stroke-width:0.5;stroke-miterlimit:10;}
	.st2{fill:#FFFFFF;stroke:#000000;stroke-width:0.5;stroke-miterlimit:10;}
	.st3{fill:#FFFFFF;stroke:#000000;stroke-width:0.25;stroke-miterlimit:10;}
</style>
<g>
	<path class="st0" d="M159.37,277.09c0.23-9.46,0.21-18.94,0.73-28.39c1.24-22.4-0.07-44.78-0.24-67.17
		c-0.02-2.08-0.07-3.98,1.24-5.78c0.99-1.37,0.1-2.81,0.06-4.2c-0.37-12.59-0.71-25.18-1.2-37.77c-0.95-24.58-0.01-49.17-0.54-73.75
		c-0.2-9.55-0.87-19.09-1.22-28.63c-0.09-2.5-0.59-5.06,0.55-7.51c0.24-0.52-0.01-0.98-0.42-1.38c-1.77-1.69-0.46-3.03,0.65-4.42
		c0.06,1.32-0.94,2.55,0.68,3.88c1.57,1.29,3.18,0.97,4.82,0.98c20.08,0.03,40.18,0.52,60.23-0.12c18.61-0.6,37.25-0.81,55.85-1.74
		c3.1-0.16,3.44-2.59,3.9-4.27c0.64-2.33,0.27-4.87,0.34-7.31c0.04-1.35-0.95-1.38-2.11-1.41c-3.63-0.12-7.28,0.11-10.87-0.77
		c3.61,0,7.22-0.06,10.82,0.03c1.62,0.04,2.55-0.25,2.57-1.88c0.03-1.8-1.42-1.26-2.4-1.24c-17.78,0.28-35.54-0.62-53.32-0.57
		c-22.86,0.05-45.72,0.01-68.58,0.02c-1.24,0-2.98-0.45-2.74,1.52c0.21,1.72-0.51,3.94,2.38,4.51c1.49,0.29,3.06,0.24,4.97,0.96
		c-2.45,1.9-7.28,1.87-6.58,6.1c-0.18-0.46-0.63-1.01-0.49-1.36c1.11-2.69-0.1-4.9-1.19-7.39c-1.67-3.81-0.68-3.7,3.25-5.66
		c4.84-2.42,9.67-1.27,14.51-1.56c1.56-0.09,3.24-0.07,4.32,1.43c0.58,0.81,1.78,0.43,2.7,0.43c11.05,0.01,22.12,0.32,33.15-0.13
		c9.46-0.39,18.83,0.7,28.26,0.6c9.51-0.1,19.03,0.11,28.54,0.14c3.55,0.01,7.11-0.06,10.66-0.13c0.86-0.02,2.36-0.03,2.46-0.34
		c1.11-3.17,4.17-2.21,6.6-2.65c1.37-0.24,2.37-0.21,2.44,1.22c0.07,1.3,0.92,1.39,2.1,1.42c13.64,0.34,27.27,0.76,40.9,1.03
		c2.58,0.05,3.36,0.76,2.4,2.82c-0.72,1.54-0.16,3.67-3.16,4.54c2.91,0.32,3.01,1.71,2.75,3.38c-0.33,2.14-1.51,4.22,0.99,6.28
		c1.31,1.08-0.47,1.54-1.7,1.54c-5.38-0.03-10.76-0.05-16.14-0.1c-9.51-0.09-19.03-0.1-28.54-0.37c-2.87-0.08-3.45,1.21-3.55,3.13
		c-0.17,3.12-0.31,6.25-0.33,9.38c-0.06,10.82-0.07,21.64-0.06,32.46c0,1.38-0.36,2.92,1.64,3.69c0.71,0.27,0.5,0.99,0.4,1.59
		c-0.21,1.33-0.55,2.67-0.48,3.99c0.12,2.17,0.08,4.04-3.17,4.18c-0.4,0.02-1.09,0.41-1.11,0.65c-0.04,0.61,0.6,1,1.14,1.34
		c0.72,0.45,0.98,0.15,1.05-0.51c0.06-0.55,0.56-0.29,0.88-0.27c0.72,0.04,0.67,0.59,0.54,0.93c-1.47,3.92,1.04,7.24,2.11,10.76
		c1.46,4.77,1.4,11.56-0.43,14.69c-0.52-0.54-0.79-1-0.37-1.7c0.76-1.25,1.75-2.62-1.28-2.41c-0.87,0.06-0.5-0.76-0.46-1.14
		c0.45-4.45-1.69-8.39-3.39-12.52c-2.19,5.02-5.43,9.8-4.18,15.54c0.27,1.26,0.28,2.82,2.32,3.11c2.07,0.29,3.19-0.78,4.05-2.22
		c0.21-0.35,0.55-0.65,0.86-1c0.97,1.2-1.9,3.1,1.14,3.81c0.35,0.08-0.32,0.85-0.72,1.12c-2.41,1.6-4.94,3.15-8.12,1.95
		c-3.27-1.23-3.92-3.96-4.25-6.69c-0.48-3.97,1.1-7.61,2.61-11.25c0.3-0.71,0.51-1.47,0.95-2.11c3.42-5.01,1.78-10.26,1.07-15.48
		c-0.32-2.34-1.47-4.93,2.09-6.36c0.33-0.13,0.44-0.9,0.47-1.37c0.52-11.07,0.1-22.13,0.09-33.13c-0.76-0.24-0.65,0.32-0.91,0.43
		c-3.41,1.51-3.44,1.5-3.27-2.03c0.16-3.38,0.32-6.76,0.61-10.13c0.14-1.62-0.58-1.99-2.29-1.95c-17.96,0.39-35.93,0.76-53.89,1.05
		c-2.27,0.04-3.74,1.16-5.3,2.25c-5.23,3.67-10.69,7.05-16.08,10.54c-7.34,4.75-14.54,9.69-21.82,14.51
		c-0.9,0.6-1.02,1.34-1.01,2.22c0.19,9.21-0.22,18.48,0.79,27.62c0.51,4.65-1.96,8.6-1.62,13.09c0.44,5.94-0.14,11.94,0.06,17.9
		c1.07,31.45,0.36,62.89-0.12,94.33c-0.18,11.91-0.71,23.84-0.23,35.72c0.57,14.18-0.52,28.39,1.22,42.53
		c0.36,2.95,2.19,4,5.51,3.08c1.15-0.32,2.78-1.33,3.41-0.42c0.79,1.15-1.17,1.83-1.93,2.71c-0.75,0.87-1.59,1.69-2.62,2.35
		c-0.16-1.78,1.67-2.45,2.53-3.95c-5.18,1.04-8.38,4.08-11.18,7.6c-0.21-0.15-0.43-0.3-0.64-0.45c1.34-2.15,2.67-4.31,4.12-6.65
		c-1.29-0.16-1.15,1.19-2.16,1.15c0.88-4.61-0.4-9.16-0.8-13.98c1.39,0.67,0.9,1.87,1.3,2.17c0-5.06,0.05-10.35-0.01-15.64
		c-0.15-13.59-0.78-27.19-0.43-40.77c0.69-26.96,0.92-53.93,0.83-80.89c-0.04-12.67-0.23-25.35-0.36-38.02
		c-0.06-5.81,0.06-11.57,2.1-17.21c0.48-1.32-0.3-2.98-0.38-4.48c-0.86-16.22-0.76-32.45-0.13-48.68c0.08-2.08,0.01-4.16,0.01-6.6
		c-2.4,4.51,1.01,9.84-3.76,13.8c-0.09-1.66,1.83-2.47,1.37-3.99c-0.49,0.25-0.92,0.46-1.46,0.74c0.2-1.56,2.04-2.46,1.53-4.27
		c-1.98,1.14-2.4,3.31-4.51,4.79c0.97-2.51,2.46-4.26,3.73-6.1c1.08-1.57,2.18-3.4,1.19-4.98c-0.79-1.26-3.03-0.6-4.57-0.5
		c-2.62,0.17-5.2,0.13-7.8-0.12c-1.61-0.15-2.42,0.29-2.36,1.95c0.14,3.63,0.04,7.26-0.14,10.9c-0.71-2.74-0.95-5.52-0.97-8.31
		c-0.01-0.93-0.05-1.86-0.17-2.78c-0.12-0.91-0.57-1.58-1.82-1.58c-1.51,0-1.38,0.92-1.34,1.76c0.18,3.88,0.32,7.77,0.61,11.65
		c1.55,21.37,1.23,42.76,0.66,64.14c-0.27,10.06-0.35,20.08,0.4,30.12c1.04,14.01,1.43,28.07,0.67,42.07
		c-0.36,6.53-0.19,13.04-0.44,19.56c-0.25,6.75,0.14,13.52,0.19,20.28c0.05,6.68,0,13.36,0.02,20.04c0.01,3.29,0.7,6.69,0,9.86
		c-2.32,10.43-0.07,21.01-1.79,31.42c-0.07,0.39-0.36,0.76-0.55,1.14C159.31,277.04,159.37,277.09,159.37,277.09z M331.16,10.84
		c1.61-0.98,3.27-0.91,4.84-1.16c2.19-0.35,2.37-2.02,2.68-3.49c0.2-0.94-0.72-1.03-1.53-1.07c-7.66-0.32-15.33-0.59-22.99-1.01
		c-1.41-0.08-2.44,0.68-4.19,0.3c-4.71-1.02-9.71-0.79-14.6-0.49c-1.77,0.11-1.81,1.74-1.87,2.76c-0.06,1.17,1.4,0.85,2.26,0.87
		c3.42,0.05,6.84,0.02,10.26,0.02c0,0.24,0,0.48,0,0.72c-3.73,0-7.46,0.09-11.18-0.04c-1.92-0.07-2.59,0.71-3.28,2.12
		c-1.27,2.6-0.58,5.25-0.75,7.87c-0.12,1.88,0.63,2.6,2.98,2.6c12.28-0.02,24.56,0.13,36.84,0.26c2.63,0.03,5.27,0.23,7.9,0.36
		c-1.5-1.03-1.41-3.01-4.22-3.56c2.75-0.42,3.88-1.08,3.76-2.97c-0.12-2.01-1.47-2.44-3.28-2.84
		C333.63,11.84,332.24,12.02,331.16,10.84z M181.39,50.07c13.3-8.99,26.1-17.52,39.94-25.93c-3.46-0.21-6-0.5-8,1.72
		c-1.07,1.19-2.58,1.85-4.47,1.04c-0.65-0.28-2.05-0.34-2.09,0.19c-0.2,2.34-2.44,1.78-3.85,2.4c-0.51,0.22-1.44,0.02-1.34,1.04
		c0.1,1.06-1.12,0.69-1.72,0.87c-0.58,0.18-1.51,0.6-1.97-0.12c-0.61-0.95-0.6-1.09-1.06-0.76c-4.62,3.27-10.33,5.54-13.01,10.77
		c2.04,0.25,2.63-2.18,4.42-1.87c-0.81,3.35-6.97,2.86-6.52,7.53c1.02-0.43,1.8-0.77,2.88-1.22
		C183.74,47.32,181.47,47.39,181.39,50.07z M203.33,24.88c-0.06-0.27-0.13-0.54-0.19-0.82c-6.4,0-12.81,0.02-19.21-0.02
		c-1.37-0.01-2.12,0.21-2.1,1.64c0.06,3.88-0.02,7.75-0.08,11.63c-0.02,1.45,0.51,1.64,1.77,0.75c2.4-1.68,4.81-3.34,7.26-4.96
		C194.95,30.34,199.15,27.62,203.33,24.88z M286.33,71.82c0.36,1.09,0.81,1.77,1.76,1.85c0.87,0.07,0.9,0.57,0.79,1.02
		c-0.25,0.96-0.82,0.14-1.23,0.09c-1.45-0.18-2.73-0.23-1.73,1.59c0.32,0.58,0.17,1.13,0.21,1.71c0.02,0.4-1.46,0.92,0.06,1.19
		c0.7,0.12,1.67,0.79,2.05,0.1c0.34-0.62,0.1-0.97,1.24-0.73c1.18,0.24,1.66-1.04,1.36-1.73c-0.6-1.36-0.14-2.63-0.02-3.91
		c0.15-1.5-0.31-2.1-2.08-1.57C288.04,71.64,287.27,71.68,286.33,71.82z M289.1,16.9c-1.6,1.72-2.78,3.63-2.21,4.36
		c1.31,1.64,0.26,3.14,0.12,4.7c-0.07,0.71-0.4,1.45,0.56,2.91C288.39,24.51,290.67,21.04,289.1,16.9z M286.28,87.65
		c-2.18,0.65-2.18,0.65-3.87,6.12C284.6,92.73,286.13,90.32,286.28,87.65z M281.17,105.16c-2.4,1.67-1.06,3.11-0.11,4.65
		c0.45,0.73,0.74,1.53,1.8,1.01c0.94-0.46,0.38-1.96,0.27-1.97C280.22,108.55,282.38,106.31,281.17,105.16z M279.02,105.45
		c2.72-0.79,2.06-2.73,2.41-4.28c0.13-0.58,1-1.33-0.14-1.62c-0.87-0.22-1.69,0.42-1.82,1.24
		C279.25,102.3,279.18,103.81,279.02,105.45z M176.45,1.88c-3.03,0-6.07,0-9.1,0C170.38,2.75,173.41,2.69,176.45,1.88z
		 M287.11,53.27c2.15-2.03,0.35-4.53,1.3-6.7C286.24,48.55,287.05,50.97,287.11,53.27z M288.3,65.37c-1.51,1.35-1.4,2.96-1.86,4.38
		c-0.22,0.69,0.27,0.89,0.95,0.87c0.59-0.02,1.51-0.3,1.15-0.73C287.3,68.39,289.28,66.96,288.3,65.37z M286.62,18.28
		c1.42-1.88,2.38-3.39,1.9-5.26C287.16,14.45,285.67,15.83,286.62,18.28z M290.66,5.16c1.22-0.39,1.64-1.24,2.09-2.05
		c0.28-0.51,0.6-1.07,0.07-1.62c-0.48-0.48-1.02-0.3-1.51-0.02c-0.63,0.36-1.49,0.91-0.8,1.53C291.37,3.8,290.03,4.37,290.66,5.16z
		 M286.27,13.53c2.14-1.75,2.59-3.38,2.6-5.54C286.98,9.47,286.58,11.12,286.27,13.53z M287.77,87.29c-0.1,0.59-0.27,1.43,0.89,1.34
		c2.82-0.22-0.58-2.21,0.98-2.93c0.25-0.12,0-0.91-0.64-0.77C287.58,85.22,288.04,86.38,287.77,87.29z"/>
	<path class="st0" d="M167.42,243.64c2.34,2.73,2.6,5.9,2.09,9.15c-0.21,1.32-0.82,2.59-1.23,3.89c-1.04,3.27-1.72,3.45-4.72,1.17
		c0.13,2.43-0.2,4.87,2.69,6.4c-1.93,0.38-2.89-0.51-3.27-1.84c-0.96-3.4-0.9-6.85-0.25-10.3c0.12-0.63,0.27-1.41,1.14-1.61
		c0.19-0.04,1.01-0.72,1.06,0.63c0.1,2.37-0.61,4.96,1.03,7.31C169.15,254.76,169.57,249.42,167.42,243.64z"/>
	<path class="st0" d="M169.9,9.46c2.05,0.23,3.43,0.94,3.26,2.9c-0.18,2.14-2.58,4.39-4.5,4.27c-1.57-0.09-3.4-2.17-3.25-3.69
		C165.59,11.14,167.93,9.37,169.9,9.46z M170.41,11.98c-0.23-0.34-0.53-1.28-1.09-1.43c-0.74-0.19-1.24,0.49-1.19,1.33
		c0.04,0.7,0.05,1.55,0.85,1.67C169.6,13.64,170.45,13.2,170.41,11.98z"/>
	<path class="st0" d="M159.31,277.04c0.21,3.57,0.49,7.14,0.62,10.71c0.06,1.61-0.41,2.68-2.81,1.84c-1.31-0.46-2.92-0.24-4.47-0.1
		c2.1,1.36,5.9,0.71,6.16,4.68c-1.89-1.97-3.75-3.03-6.24-2.92c-0.75,0.03-1.33-0.28-1.49-0.94c-0.2-0.85,0.3-1.47,1.07-1.9
		c1.46-0.8,3.01-0.47,4.44-0.03c1.81,0.56,2.3-0.13,2.2-1.51c-0.15-1.85-0.08-3.76-0.66-5.51c-0.59-1.8-0.11-3.07,1.25-4.28
		C159.37,277.09,159.31,277.04,159.31,277.04z"/>
	<path class="st0" d="M176.12,230.58c-0.08,9.47,0.4,18.96-1.67,28.36c0.29-9.44,0.58-18.88,0.87-28.32
		C175.58,230.61,175.85,230.6,176.12,230.58z"/>
	<path class="st0" d="M218.93,21.85c-1.85-0.04-3.65-0.04-3.67-1.86c-0.02-1.78,1.39-2.59,3.42-2.59c1.73,0,2.51,0.91,2.37,2.2
		C220.93,20.71,221,22.41,218.93,21.85z"/>
	<path class="st0" d="M178.9,47.5c-0.33,1.47-0.88,2.82-2.91,2.94c-1.36,0.08-2.24-0.55-2.2-1.79c0.06-1.7,1.02-2.96,3.02-3.14
		C178.22,45.39,178.75,46.37,178.9,47.5z"/>
	<path class="st0" d="M173.6,60.39c0.33,8.09,0.2,16.13-0.7,24.16C172.62,76.47,172.86,68.41,173.6,60.39z"/>
	<path class="st0" d="M176.82,147.74c0-6.48,0-12.96,0-19.44C177.69,134.78,178.13,141.26,176.82,147.74z"/>
	<path class="st0" d="M164.1,205.89c0-5.79,0-11.58,0-17.37C164.7,194.34,165.29,200.15,164.1,205.89z"/>
	<path class="st0" d="M176.47,21.74c6.02-0.82,11.91-0.7,17.8,0C188.34,21.74,182.4,21.74,176.47,21.74z"/>
	<path class="st0" d="M213.34,5.41c8.32,0,16.63,0,24.95,0C229.97,5.67,221.66,5.79,213.34,5.41z"/>
	<path class="st0" d="M175.81,291.48c0.05-2.39-1.45-2.2-3.06-1.52c-1.41,0.6-2.39,1.66-3.23,2.81c-0.48,0.65-0.69,1.54-2.05,1.84
		c1.17-2.69,2.83-4.68,5.67-5.86c1.35-0.56,2.87-0.58,3.76,0.24C177.63,289.65,176.38,290.56,175.81,291.48z"/>
	<path class="st0" d="M264.7,19.24c-5.76,0.28-11.52,0.56-17.27,0.83C253.17,19.03,258.95,18.71,264.7,19.24z"/>
	<path class="st0" d="M159.18,297.05c1.76-1.76,2.2-3.46,2.75-5.06c0.63-1.84,2.25-1.05,3.36-1.29c0.8-0.17,0.56,1.22,0.37,1.24
		c-3.23,0.27-3.24,3.19-5.04,4.6C160.44,296.7,160.14,296.73,159.18,297.05z"/>
	<path class="st0" d="M166.43,161.84c-0.88-3.93-1.44-7.89-1.14-11.91C165.77,153.88,166.99,157.78,166.43,161.84z"/>
	<path class="st0" d="M173.82,296.65c4.53-1.17,8.99-0.19,13.46,0C182.79,297.19,178.29,297.11,173.82,296.65z"/>
	<path class="st0" d="M165.43,133.04c-0.2-2.81,0.68-5.5,1.66-8.17C167.76,127.75,166.45,130.35,165.43,133.04z"/>
	<path class="st0" d="M156.16,294.16c-0.82,0.37-1.68,0.7-2.46,1.12c-0.84,0.46-1.43,1.04-1.21,2.06c0.1,0.46,1.13,0.43,0.63,1.01
		c-0.14,0.16-0.74,0.13-1.08,0.03c-0.65-0.18-0.93-0.81-0.65-1.21c0.97-1.38,0.35-2.73,0.03-4.27
		C152.6,295.05,154.36,294.14,156.16,294.16z"/>
	<path class="st0" d="M145.31,292.61c1.09-0.24,1.66-0.89,2.37-1.13c0.73-0.25,1.29,0.55,1.7,1.09c0.52,0.67-0.02,1.4-0.33,1.87
		c-0.49,0.76-1.14-0.05-1.6-0.3C146.74,293.77,146.14,293.23,145.31,292.61z"/>
	<path class="st0" d="M172.32,195.33c-0.89-2.25-0.85-4.54-0.64-6.85C172.64,190.7,172.53,193.02,172.32,195.33z"/>
	<path class="st0" d="M166.44,118.89c-2.37-0.97-3.05-2.5-2.54-5.36C165.66,115.06,164.32,117.59,166.44,118.89z"/>
	<path class="st0" d="M165.73,271.13c-1.65-1.73-1.96-3.25-1.69-4.93C165.33,267.47,165.27,269.09,165.73,271.13z"/>
	<path class="st0" d="M295.32,15.97c0.38-0.47,1.3-0.9,1.62-0.51c1.12,1.36,2.35,1.03,3.69,0.52c0.68-0.26,1.07,0.04,1.43,0.47
		c0.24,0.29,0.36,0.62,0.04,0.89c-0.51,0.43-0.81-0.18-1.22-0.24C299.03,16.84,297.08,17.06,295.32,15.97z"/>
</g>
<path class="st1" d="M296.43,252.91L296.43,252.91c-4.64,0-8.4-3.76-8.4-8.4v-57.04h16.8v57.04
	C304.83,249.15,301.07,252.91,296.43,252.91z"/>
<path class="st1" d="M272.49,252.91L272.49,252.91c-4.64,0-8.4-3.76-8.4-8.4v-57.04h16.8v57.04
	C280.89,249.15,277.13,252.91,272.49,252.91z"/>
<path class="st1" d="M304.83,178.28l-0.03-60.96c3.69,2.84,6.93,6.64,6.93,10.67l0.06,45.25
	C309.47,179.08,304.83,178.28,304.83,178.28z"/>
<path class="st1" d="M263.86,178.28l0.22-60.77c0,0-7.12,6.46-7.12,10.48l-0.06,45.25C259.22,179.08,263.86,178.28,263.86,178.28z"
	/>
<g>
	<path class="st2" d="M302.3,115.17c-1.39-0.74-2.87-0.87-3.2-0.87h-8.35l-0.01-2.94h-6.18v-1.52l-6.39-2.73l-0.01,7.19h-8.35
		c-0.33,0-1.81,0.13-3.2,0.87c-1.29,0.69-2.53,1.98-2.53,2.33v70.5h20h0.74h20v-70.5C304.83,117.15,303.6,115.86,302.3,115.17z"/>
	<g>
		<path class="st3" d="M280.57,112.54L280.57,112.54l0.83,1.22c0.29,0.42,1.39,0.67,2.45,0.56l0,0l-0.83-1.22
			C282.74,112.68,281.64,112.43,280.57,112.54z"/>
		<path class="st3" d="M278.67,112.52L278.67,112.52l0.83,1.22c0.29,0.42,1.39,0.67,2.45,0.56l0,0l-0.83-1.22
			C280.83,112.66,279.73,112.41,278.67,112.52z"/>
		<path class="st3" d="M277.56,113.69c0.37,0.41,1.51,0.63,2.55,0.49l0,0l-1.06-1.2c-0.18-0.21-1.03-0.7-1.36-0.47
			C277.37,112.74,277.56,113.69,277.56,113.69z"/>
		<path class="st3" d="M286.7,112.84L286.7,112.84l0.83,1.22c0.29,0.42,1.39,0.67,2.45,0.56l0,0l-0.83-1.22
			C288.86,112.98,287.77,112.73,286.7,112.84z"/>
		<path class="st3" d="M288.95,113.05L288.95,113.05l0.83,1.22c0.29,0.42,0.86,0.64,1.32,0.36s0.3-1.02,0.3-1.02
			C291.11,113.19,290.02,112.93,288.95,113.05z"/>
		<path class="st3" d="M284.79,112.82L284.79,112.82l0.83,1.22c0.29,0.42,1.39,0.67,2.45,0.56l0,0l-0.83-1.22
			C286.96,112.96,285.86,112.71,284.79,112.82z"/>
		<path class="st3" d="M282.63,112.79L282.63,112.79l1.06,1.2c0.37,0.41,1.51,0.63,2.55,0.49l0,0l-1.06-1.2
			C284.81,112.87,283.67,112.65,282.63,112.79z"/>
	</g>
</g>
<circle class="st2" cx="290.06" cy="96.16" r="16.48"/>
</svg>
