<?xml version="1.0" encoding="utf-8"?>
<!-- Generator: Adobe Illustrator 25.0.0, SVG Export Plug-In . SVG Version: 6.00 Build 0)  -->
<svg version="1.1" id="Camada_1" xmlns="http://www.w3.org/2000/svg" xmlns:xlink="http://www.w3.org/1999/xlink" x="0px" y="0px"
	 viewBox="0 0 65 242.82" style="enable-background:new 0 0 65 242.82;" xml:space="preserve">
<style type="text/css">
	.st0{display:none;stroke:#000000;stroke-miterlimit:10;}
	.st1{fill:#FFFFFF;}
	.st2{display:none;fill:#FFFFFF;stroke:#020203;stroke-width:0.5;stroke-miterlimit:10;}
	.st3{fill:#FFFFFF;stroke:#020203;stroke-width:0.5;stroke-miterlimit:10;}
	.st4{fill:#FFFFFF;stroke:#020203;stroke-width:0.25;stroke-miterlimit:10;}
	.st5{display:none;}
	.st6{display:inline;fill:#020203;stroke:#020203;stroke-width:0.25;stroke-miterlimit:9.9999;}
</style>
<rect x="0.49" y="0" class="st0" width="63.75" height="242.83"/>
<path class="st1" d="M41.56,80.32c-1.07-3.75-3.58-7.3-2.11-11.48c0.13-0.36,0.18-0.95-0.54-0.99c-0.31-0.02-0.81-0.3-0.88,0.29
	c-0.07,0.71-0.34,1.03-1.05,0.55c-0.54-0.36-1.18-0.78-1.14-1.43c0.02-0.26,0.71-0.68,1.11-0.7c3.25-0.16,3.3-2.15,3.17-4.46
	c-0.07-1.41,0.26-2.85,0.48-4.26c0.1-0.64,0.31-1.41-0.4-1.7c-2.01-0.83-1.64-2.47-1.64-3.94c-0.01-7.12,0-14.16,0.01-21.23
	l-0.69-10.87c0,0.07,0.54-15.88,0.02-20.09c-2.09,0-2.09,0-2.53,0c-0.72-0.01-0.75,20.2-0.75,20.3c0.03,11.51-0.2,22.79-0.71,34.36
	c-0.02,0.51-0.14,1.33-0.47,1.47c-3.56,1.52-2.41,4.29-2.09,6.79c0.72,5.57,2.36,11.18-1.07,16.52c-0.44,0.68-0.65,1.49-0.95,2.25
	c-1.51,3.88-3.08,7.77-2.61,12.01c0.33,2.91,0.98,5.82,4.25,7.14c3.19,1.28,5.72-0.38,8.12-2.08c0.41-0.29,1.08-1.11,0.72-1.19
	c-3.03-0.76-0.17-2.79-1.14-4.07c-0.31,0.38-0.65,0.69-0.86,1.07c-0.87,1.54-1.98,2.68-4.05,2.37c-2.04-0.3-2.05-1.97-2.32-3.32
	c-1.24-6.12,1.99-11.22,4.18-16.58c1.7,4.41,3.84,8.61,3.39,13.36c-0.04,0.4-0.41,1.28,0.46,1.22c3.03-0.22,2.04,1.24,1.28,2.58
	c-0.42,0.75-0.15,1.24,0.37,1.82C42.96,92.65,43.02,85.4,41.56,80.32z M37.11,35.01c-0.95,2.17,0.85,4.67-1.3,6.7
	C35.76,39.42,34.95,36.99,37.11,35.01z M35.15,58.19c0.46-1.42,0.35-3.03,1.86-4.38c0.99,1.59-0.99,3.02,0.23,4.52
	c0.36,0.44-0.56,0.72-1.15,0.73C35.42,59.08,34.93,58.89,35.15,58.19z M28.19,89.24c0.13-0.83,0.94-1.46,1.82-1.24
	c1.14,0.28,0.27,1.04,0.14,1.62c-0.35,1.54,0.31,3.48-2.41,4.28C27.88,92.26,27.95,90.74,28.19,89.24z M31.83,97.29
	c0.11,0.01,0.67,1.51-0.27,1.97c-1.06,0.52-1.35-0.29-1.8-1.01c-0.95-1.54-2.29-2.98,0.11-4.65C31.09,94.76,28.92,97,31.83,97.29z
	 M31.12,82.22c1.69-5.47,1.69-5.47,3.87-6.12C34.84,78.76,33.31,81.18,31.12,82.22z M34.9,67.72c-1.52-0.27-0.04-0.8-0.06-1.19
	c-0.03-0.58,0.12-1.13-0.21-1.71c-1-1.82,0.28-1.77,1.73-1.59c0.41,0.05,0.98,0.87,1.23-0.09c0.12-0.45,0.08-0.95-0.79-1.02
	c-0.96-0.08-1.4-0.76-1.76-1.85c0.94-0.15,1.71-0.18,2.42-0.39c1.77-0.53,2.23,0.08,2.08,1.57c-0.13,1.29-0.58,2.55,0.02,3.91
	c0.3,0.68-0.18,1.97-1.36,1.73c-1.14-0.24-0.9,0.11-1.24,0.73C36.57,68.52,35.6,67.85,34.9,67.72z M37.37,77.07
	c-1.16,0.09-0.99-0.75-0.89-1.34c0.27-0.91-0.19-2.07,1.23-2.36c0.64-0.13,0.9,0.66,0.64,0.77C36.79,74.87,40.19,76.85,37.37,77.07z
	"/>
<path class="st2" d="M43,241.36L43,241.36c-4.64,0-8.4-3.76-8.4-8.4v-57.04h16.8v57.04C51.4,237.6,47.64,241.36,43,241.36z"/>
<path class="st3" d="M19.06,241.36L19.06,241.36c-4.64,0-8.4-3.76-8.4-8.4v-57.04h16.8v57.04C27.46,237.6,23.7,241.36,19.06,241.36z
	"/>
<path class="st3" d="M51.4,166.73l-0.03-60.96c3.69,2.84,6.93,6.64,6.93,10.67l0.06,45.25C56.04,167.53,51.4,166.73,51.4,166.73z"/>
<path class="st3" d="M10.43,166.73l0.22-60.77c0,0-7.12,6.46-7.12,10.48l-0.06,45.25C5.79,167.53,10.43,166.73,10.43,166.73z"/>
<g>
	<path class="st3" d="M48.87,103.62c-1.39-0.74-2.87-0.87-3.2-0.87h-8.35l-0.01-2.94h-6.18v-1.52l-6.39-2.73l-0.01,7.19h-8.35
		c-0.33,0-1.81,0.13-3.2,0.87c-1.29,0.69-2.53,1.98-2.53,2.33v70.5h20h0.74h20v-70.5C51.4,105.6,50.17,104.31,48.87,103.62z"/>
	<g>
		<path class="st4" d="M27.14,100.99L27.14,100.99l0.83,1.22c0.29,0.42,1.39,0.67,2.45,0.56l0,0l-0.83-1.22
			C29.31,101.13,28.21,100.88,27.14,100.99z"/>
		<path class="st4" d="M25.24,100.97L25.24,100.97l0.83,1.22c0.29,0.42,1.39,0.67,2.45,0.56l0,0l-0.83-1.22
			C27.4,101.11,26.3,100.86,25.24,100.97z"/>
		<path class="st4" d="M24.13,102.14c0.37,0.41,1.51,0.63,2.55,0.49l0,0l-1.06-1.2c-0.18-0.21-1.03-0.7-1.36-0.47
			C23.94,101.19,24.13,102.14,24.13,102.14z"/>
		<path class="st4" d="M33.27,101.29L33.27,101.29l0.83,1.22c0.29,0.42,1.39,0.67,2.45,0.56l0,0l-0.83-1.22
			C35.43,101.43,34.34,101.18,33.27,101.29z"/>
		<path class="st4" d="M35.52,101.5L35.52,101.5l0.83,1.22c0.29,0.42,0.86,0.64,1.32,0.36s0.3-1.02,0.3-1.02
			C37.68,101.64,36.59,101.38,35.52,101.5z"/>
		<path class="st4" d="M31.36,101.27L31.36,101.27l0.83,1.22c0.29,0.42,1.39,0.67,2.45,0.56l0,0l-0.83-1.22
			C33.53,101.41,32.43,101.16,31.36,101.27z"/>
		<path class="st4" d="M29.2,101.24L29.2,101.24l1.06,1.2c0.37,0.41,1.51,0.63,2.55,0.49l0,0l-1.06-1.2
			C31.38,101.32,30.24,101.1,29.2,101.24z"/>
	</g>
</g>
<circle class="st3" cx="36.63" cy="84.61" r="16.48"/>
<g class="st5">
	
		<rect x="35.09" y="84.12" transform="matrix(0.7071 -0.7071 0.7071 0.7071 -48.8922 50.6448)" class="st6" width="3.2" height="0.45"/>
	
		<rect x="36.36" y="82.63" transform="matrix(0.7071 -0.7071 0.7071 0.7071 -48.847 50.5386)" class="st6" width="0.45" height="3.2"/>
</g>
<g class="st5">
	
		<rect x="47.82" y="84.17" transform="matrix(0.7071 -0.7071 0.7071 0.7071 -45.1999 59.6637)" class="st6" width="3.2" height="0.45"/>
	
		<rect x="49.09" y="82.69" transform="matrix(0.7071 -0.7071 0.7071 0.7071 -45.1602 59.5581)" class="st6" width="0.45" height="3.2"/>
</g>
</svg>
